<svg width="800" height="1080" viewBox="0 0 800 1080" fill="none" xmlns="http://www.w3.org/2000/svg">
<rect width="800" height="1080" fill="#2F2F2F"/>
<rect x="100" y="50" width="600" height="1000" rx="40" fill="#FAFAFA"/>
<rect x="700.5" y="20.5" width="99" height="1059" rx="4.5" stroke="#9747FF" stroke-dasharray="10 5"/>
<rect x="720" y="40" width="60" height="60" rx="15" fill="#FAFAFA"/>
<rect x="720" y="120" width="60" height="60" rx="15" fill="#FAFAFA"/>
<rect x="720" y="200" width="60" height="60" rx="15" fill="#FAFAFA"/>
<rect x="720" y="280" width="60" height="60" rx="15" fill="#FAFAFA"/>
<rect x="720" y="360" width="60" height="60" rx="15" fill="#FAFAFA"/>
<rect x="720" y="440" width="60" height="60" rx="15" fill="#FAFAFA"/>
<rect x="720" y="520" width="60" height="60" rx="15" fill="#FAFAFA"/>
<rect x="720" y="600" width="60" height="60" rx="15" fill="#FAFAFA"/>
<rect x="720" y="680" width="60" height="60" rx="15" fill="#FAFAFA"/>
<rect x="720" y="760" width="60" height="60" rx="15" fill="#FAFAFA"/>
<rect x="720" y="840" width="60" height="60" rx="15" fill="#FAFAFA"/>
<rect x="720" y="920" width="60" height="60" rx="15" fill="#FAFAFA"/>
<rect x="720" y="1000" width="60" height="60" rx="15" fill="#FAFAFA"/>
<rect x="0.5" y="20.5" width="99" height="1059" rx="4.5" stroke="#9747FF" stroke-dasharray="10 5"/>
<rect x="20" y="40" width="60" height="60" rx="15" fill="#FAFAFA"/>
<rect x="20" y="120" width="60" height="60" rx="15" fill="#FAFAFA"/>
<rect x="20" y="200" width="60" height="60" rx="15" fill="#FAFAFA"/>
<rect x="20" y="280" width="60" height="60" rx="15" fill="#FAFAFA"/>
<rect x="20" y="360" width="60" height="60" rx="15" fill="#FAFAFA"/>
<rect x="20" y="440" width="60" height="60" rx="15" fill="#FAFAFA"/>
<rect x="20" y="520" width="60" height="60" rx="15" fill="#FAFAFA"/>
<rect x="20" y="600" width="60" height="60" rx="15" fill="#FAFAFA"/>
<rect x="20" y="680" width="60" height="60" rx="15" fill="#FAFAFA"/>
<rect x="20" y="760" width="60" height="60" rx="15" fill="#FAFAFA"/>
<rect x="20" y="840" width="60" height="60" rx="15" fill="#FAFAFA"/>
<rect x="20" y="920" width="60" height="60" rx="15" fill="#FAFAFA"/>
<rect x="20" y="1000" width="60" height="60" rx="15" fill="#FAFAFA"/>
</svg>
