<svg width="1205" height="328" viewBox="0 0 1205 328" fill="none" xmlns="http://www.w3.org/2000/svg">
<g clip-path="url(#clip0_110_2228)">
<path d="M23.0923 329.232L1203.51 113.356L1189.13 34.6619C1185.15 12.9308 1164.31 -1.46378 1142.58 2.51041L1.50468 211.19L23.0923 329.232Z" fill="#FAFAFA"/>
<path d="M1.49351 211.131L141.194 307.634L419.594 256.87L419.423 256.752L279.793 160.297L1.49351 211.131Z" fill="#2F2F2F"/>
<path d="M397.998 138.617L537.698 235.121L816.098 184.357L815.927 184.239L676.297 87.7844L397.998 138.617Z" fill="#2F2F2F"/>
<path d="M785.519 67.7469L925.221 164.251L1203.62 113.487L1203.45 113.369L1063.82 16.9139L785.519 67.7469Z" fill="#2F2F2F"/>
<path d="M65.2707 305.551C72.0693 304.353 76.6405 298.048 75.4806 291.47C74.3207 284.892 67.869 280.532 61.0704 281.73C54.2717 282.929 49.7005 289.233 50.8604 295.811C52.0203 302.389 58.472 306.75 65.2707 305.551Z" fill="#D9D9D9"/>
<path d="M161.287 279.206L152.372 280.836C152.167 280.874 152.041 280.765 151.994 280.509L142.261 226.416C142.224 226.211 142.307 226.09 142.513 226.052L152.118 224.296C152.323 224.258 152.521 224.327 152.712 224.504L161.795 233.566L167.045 221.884C167.161 221.65 167.335 221.513 167.565 221.471L177.21 219.707C177.441 219.665 177.575 219.746 177.612 219.951L187.653 273.987C187.7 274.243 187.621 274.39 187.415 274.427L178.502 276.058C178.296 276.096 178.171 275.986 178.124 275.73L170.704 235.589L164.634 249.089L154.258 238.597L161.524 278.766C161.571 279.022 161.492 279.169 161.287 279.206ZM209.036 271.268C206.244 271.779 203.538 271.532 200.919 270.528C198.325 269.52 196.094 267.956 194.224 265.836C192.374 263.686 191.188 261.176 190.663 258.307L186.179 233.355C185.644 230.434 185.869 227.68 186.852 225.091C187.804 222.481 189.33 220.257 191.428 218.417C193.523 216.552 195.953 215.366 198.72 214.86C201.59 214.335 204.293 214.569 206.831 215.561C209.393 216.548 211.585 218.106 213.404 220.236C215.243 222.334 216.428 224.831 216.957 227.727L221.595 252.651C222.12 255.519 221.908 258.272 220.961 260.907C219.992 263.573 218.473 265.835 216.404 267.697C214.335 269.557 211.879 270.748 209.036 271.268ZM207.3 261.777C208.888 261.486 210.155 260.593 211.1 259.096C212.039 257.574 212.361 256.007 212.065 254.393L207.428 229.469C207.109 227.727 206.289 226.355 204.967 225.352C203.646 224.349 202.14 224.003 200.449 224.312C198.835 224.607 197.56 225.45 196.623 226.839C195.685 228.228 195.38 229.82 195.709 231.612L200.269 256.55C200.583 258.267 201.431 259.647 202.814 260.691C204.19 261.71 205.687 262.072 207.3 261.777ZM248.665 263.226L239.136 264.969C238.906 265.011 238.754 264.906 238.682 264.655L217.92 212.58C217.831 212.384 217.916 212.263 218.172 212.216L227.086 210.585C227.291 210.548 227.438 210.627 227.527 210.822L240.573 245.685L240.284 208.489C240.298 208.275 240.407 208.15 240.611 208.112L249.411 206.503C249.692 206.451 249.814 206.534 249.775 206.754L248.979 262.771C249.001 263.033 248.897 263.184 248.665 263.226ZM273.642 258.659L264.728 260.289C264.472 260.336 264.32 260.231 264.273 259.975L254.463 205.896C254.425 205.692 254.509 205.57 254.713 205.533L263.551 203.916C263.756 203.879 263.878 203.963 263.915 204.168L273.88 258.218C273.926 258.474 273.847 258.622 273.642 258.659ZM306.611 252.629L281.174 257.281C280.969 257.319 280.843 257.209 280.796 256.953L270.986 202.875C270.948 202.67 271.032 202.549 271.236 202.511L296.52 197.888C296.725 197.85 296.851 197.959 296.898 198.215L298.507 207.014C298.545 207.219 298.461 207.341 298.256 207.378L282.117 210.33L284.366 222.626L300.505 219.675C300.71 219.637 300.831 219.72 300.869 219.925L302.575 228.827C302.613 229.031 302.529 229.152 302.325 229.19L286.109 232.155L288.625 245.912L304.841 242.946C305.045 242.908 305.171 243.018 305.218 243.274L306.862 252.266C306.899 252.47 306.816 252.592 306.611 252.629Z" fill="#FFDC62"/>
<path d="M930.529 138.528L921.614 140.158C921.408 140.195 921.283 140.086 921.236 139.829L911.503 85.7367C911.465 85.5326 911.549 85.4109 911.754 85.3738L921.36 83.6164C921.565 83.5792 921.764 83.6491 921.954 83.8259L931.038 92.8864L936.287 81.2045C936.403 80.9719 936.577 80.8337 936.807 80.7916L946.451 79.0274C946.682 78.9854 946.816 79.0669 946.854 79.2721L956.895 133.308C956.942 133.564 956.862 133.711 956.658 133.749L947.743 135.379C947.538 135.416 947.412 135.307 947.365 135.051L939.945 94.911L933.876 108.411L923.499 97.9185L930.765 138.087C930.812 138.343 930.734 138.489 930.529 138.528ZM960.853 132.585L960.725 76.7347C960.739 76.5208 960.849 76.3952 961.054 76.3571L972.466 74.2703C972.671 74.2332 972.817 74.3118 972.906 74.5072L992.17 126.857C992.241 127.108 992.163 127.255 991.932 127.298L983.21 128.893C982.954 128.94 982.789 128.837 982.716 128.586L980.817 122.977L970.096 124.938L970.305 130.856C970.326 131.117 970.222 131.268 969.992 131.31L961.231 132.912C961.025 132.949 960.9 132.841 960.853 132.585ZM969.627 93.4935L970.133 116.234L977.703 114.85L970.434 93.3459L969.439 90.5097L969.627 93.4935ZM1006.38 124.655L997.465 126.285C997.261 126.324 997.134 126.214 997.087 125.958L987.368 71.9423C987.322 71.6861 987.4 71.5394 987.605 71.5013L996.443 69.8857C996.648 69.8475 996.774 69.957 996.821 70.2132L1000.23 88.8498L1009.14 67.8813C1009.31 67.638 1009.49 67.5008 1009.67 67.4685L1018.69 65.8167C1018.92 65.7746 1018.99 65.8679 1018.9 66.0956L1009.27 90.294L1030.45 119.935C1030.62 120.117 1030.51 120.242 1030.12 120.312L1020.52 122.07C1020.26 122.116 1020.1 122.042 1020.01 121.847L1005.13 100.661L1003.19 105.463L1006.62 124.215C1006.66 124.471 1006.58 124.618 1006.38 124.655ZM1058.17 115.183L1032.74 119.835C1032.53 119.873 1032.4 119.763 1032.37 119.507L1022.55 65.428C1022.52 65.2238 1022.6 65.1022 1022.81 65.0651L1048.09 60.4409C1048.3 60.4038 1048.42 60.5123 1048.46 60.7685L1050.08 69.5684C1050.11 69.7735 1050.03 69.8942 1049.83 69.9323L1033.68 72.8831L1035.93 85.1797L1052.07 82.2279C1052.27 82.1908 1052.39 82.2743 1052.43 82.4795L1054.15 91.3798C1054.17 91.5849 1054.09 91.7056 1053.89 91.7437L1037.67 94.7092L1040.19 108.465L1056.41 105.499C1056.62 105.462 1056.74 105.572 1056.78 105.828L1058.43 114.819C1058.47 115.024 1058.38 115.145 1058.17 115.183ZM1074.7 112.161L1065.78 113.791C1065.58 113.829 1065.45 113.72 1065.41 113.464L1055.67 59.3709C1055.64 59.1658 1055.72 59.0452 1055.92 59.007L1071.83 56.0982C1074.68 55.5783 1077.42 55.7918 1080.05 56.74C1082.69 57.6871 1084.92 59.1976 1086.75 61.2714C1088.61 63.3402 1089.81 65.8473 1090.36 68.7937C1090.71 70.7142 1090.74 72.5103 1090.43 74.181C1090.12 75.8507 1089.67 77.2969 1089.08 78.5183C1088.5 79.7339 1087.95 80.6576 1087.4 81.2873C1090.82 83.9177 1092.92 87.3597 1093.69 91.612L1096.73 107.736C1096.78 107.992 1096.66 108.144 1096.41 108.191L1087.5 109.821C1087.29 109.858 1087.18 109.801 1087.15 109.646L1084.17 93.3547C1083.81 91.4592 1082.85 89.9411 1081.27 88.8014C1079.68 87.6617 1077.92 87.2703 1075.97 87.626L1070.79 88.5751L1074.94 111.721C1074.99 111.977 1074.91 112.124 1074.7 112.161ZM1073.55 65.5126L1066.79 66.749L1069.06 79.1217L1075.82 77.8853C1077.43 77.5901 1078.76 76.7257 1079.79 75.2921C1080.85 73.8535 1081.23 72.2641 1080.9 70.5217C1080.6 68.8564 1079.73 67.5347 1078.27 66.5555C1076.81 65.5504 1075.25 65.2027 1073.55 65.5126Z" fill="#FFDC62"/>
<path d="M547.875 208.506L538.96 210.137C538.755 210.175 538.629 210.065 538.583 209.809L528.849 155.717C528.812 155.511 528.895 155.391 529.101 155.353L538.706 153.596C538.911 153.559 539.11 153.629 539.3 153.806L548.384 162.866L553.633 151.184C553.749 150.951 553.923 150.814 554.153 150.771L563.798 149.007C564.029 148.965 564.163 149.047 564.201 149.252L574.241 203.288C574.288 203.544 574.209 203.691 574.005 203.728L565.09 205.358C564.884 205.396 564.759 205.287 564.712 205.031L557.292 164.89L551.222 178.389L540.846 167.898L548.112 208.066C548.159 208.323 548.08 208.469 547.875 208.506ZM578.199 202.564L578.072 146.715C578.085 146.501 578.195 146.375 578.4 146.337L589.812 144.25C590.017 144.213 590.164 144.292 590.252 144.487L609.516 196.837C609.588 197.088 609.509 197.235 609.278 197.277L600.556 198.872C600.3 198.919 600.135 198.817 600.063 198.566L598.163 192.956L587.443 194.917L587.652 200.836C587.673 201.097 587.568 201.248 587.338 201.29L578.577 202.892C578.372 202.929 578.246 202.82 578.199 202.564ZM586.974 163.472L587.48 186.214L595.05 184.83L587.78 163.325L586.785 160.49L586.974 163.472ZM631.296 193.251L622.42 194.874C622.189 194.917 622.051 194.809 622.004 194.553L613.796 149.673L603.575 151.541C603.319 151.588 603.168 151.484 603.121 151.228L601.588 142.414C601.551 142.209 601.634 142.088 601.839 142.051L631.734 136.583C632.016 136.532 632.176 136.608 632.213 136.813L633.822 145.613C633.869 145.869 633.79 146.016 633.585 146.053L623.249 147.944L631.533 192.81C631.58 193.066 631.501 193.213 631.296 193.251ZM660.64 188.679C657.797 189.199 655.065 188.956 652.446 187.953C649.852 186.945 647.644 185.363 645.82 183.208C644.017 181.023 642.844 178.445 642.301 175.473L637.887 150.905C637.354 147.985 637.536 145.225 638.438 142.625C639.335 139.999 640.817 137.755 642.886 135.894C644.976 134.003 647.455 132.795 650.324 132.27C653.245 131.736 655.974 131.965 658.51 132.958C661.074 133.944 663.255 135.518 665.053 137.678C666.872 139.807 668.051 142.345 668.589 145.29L669.25 148.903C669.287 149.107 669.204 149.229 668.999 149.266L660.161 150.883C659.956 150.92 659.835 150.836 659.797 150.631L659.137 147.019C658.818 145.278 657.98 143.882 656.624 142.833C655.267 141.784 653.744 141.413 652.052 141.723C650.183 142.065 648.865 142.968 648.1 144.432C647.336 145.894 647.108 147.472 647.417 149.163L651.907 173.716C652.259 175.637 653.111 177.11 654.462 178.134C655.809 179.131 657.291 179.483 658.904 179.188C660.594 178.879 661.882 177.955 662.766 176.417C663.644 174.853 663.931 173.238 663.627 171.573L662.96 167.923C662.922 167.717 663.006 167.597 663.21 167.559L672.125 165.928C672.33 165.891 672.451 165.975 672.489 166.18L673.157 169.831C673.695 172.776 673.495 175.592 672.557 178.279C671.589 180.945 670.085 183.219 668.047 185.1C666.003 186.957 663.534 188.149 660.64 188.679ZM690.894 182.352L681.979 183.982C681.774 184.019 681.648 183.91 681.601 183.654L671.791 129.576C671.754 129.37 671.862 129.245 672.118 129.198L680.88 127.596C681.137 127.549 681.283 127.628 681.32 127.833L685.158 149.249L696.954 147.092L693.04 125.689C693.002 125.484 693.086 125.364 693.291 125.325L702.052 123.723C702.308 123.677 702.455 123.756 702.493 123.96L712.534 177.997C712.58 178.253 712.476 178.405 712.22 178.452L703.382 180.068C703.126 180.115 702.974 180.01 702.927 179.754L698.697 156.622L686.901 158.779L691.131 181.911C691.178 182.167 691.098 182.314 690.894 182.352Z" fill="#FFDC62"/>
</g>
<defs>
<clipPath id="clip0_110_2228">
<rect width="1202" height="120.574" fill="white" transform="translate(0 208.725) rotate(-10)"/>
</clipPath>
</defs>
</svg>
