<svg width="1201" height="390" viewBox="0 0 1201 390" fill="none" xmlns="http://www.w3.org/2000/svg">
<path d="M1200.03 137.004H0.0302734V253.11H1200.03V137.004Z" fill="#FAFAFA"/>
<path d="M64.5 178.028C71.4036 178.028 77 172.614 77 165.934C77 159.255 71.4036 153.84 64.5 153.84C57.5964 153.84 52 159.255 52 165.934C52 172.614 57.5964 178.028 64.5 178.028Z" fill="#D9D9D9"/>
<path d="M0.0302734 253.168L120.091 137.004L403.081 136.861L402.934 137.004L282.934 253.109L0.0302734 253.168Z" fill="#2F2F2F"/>
<path d="M403.111 253.168L523.172 137.004L806.162 136.861L806.015 137.004L686.015 253.109L403.111 253.168Z" fill="#2F2F2F"/>
<path d="M797.061 253.168L917.122 137.004L1200.11 136.861L1199.96 137.004L1079.96 253.109L797.061 253.168Z" fill="#2F2F2F"/>
<path d="M24.5 178.028C31.4036 178.028 37 172.614 37 165.934C37 159.255 31.4036 153.84 24.5 153.84C17.5964 153.84 12 159.255 12 165.934C12 172.614 17.5964 178.028 24.5 178.028Z" fill="#D9D9D9"/>
</svg>
